<svg width="34" height="38" viewBox="0 0 34 38" fill="none" xmlns="http://www.w3.org/2000/svg">
<path d="M16.9554 7C11.9727 7 7.91901 11.0537 7.91901 16.0364C7.91901 20.8871 16.2416 30.4332 16.5959 30.8372C16.6867 30.9407 16.8177 31 16.9554 31C17.0931 31 17.2241 30.9407 17.3149 30.8372C17.6691 30.4332 25.9918 20.8871 25.9918 16.0364C25.9918 11.0537 21.9381 7 16.9554 7ZM16.9553 29.7874C16.2592 28.9658 14.6558 27.0267 13.0668 24.7759C10.3246 20.8918 8.87516 17.8697 8.87516 16.0364C8.87516 11.581 12.4999 7.9562 16.9554 7.9562C21.4109 7.9562 25.0356 11.581 25.0356 16.0364C25.0356 17.8686 23.5878 20.8884 20.8487 24.7693C19.2591 27.0213 17.6524 28.9645 16.9553 29.7874Z" fill="#333333"/>
<path d="M16.9554 9.4375C13.4229 9.4375 10.549 12.3114 10.549 15.8439C10.549 19.3764 13.4229 22.2503 16.9554 22.2503C20.4879 22.2503 23.3617 19.3764 23.3617 15.8439C23.3617 12.3114 20.4879 9.4375 16.9554 9.4375ZM16.9554 21.2941C13.9501 21.2941 11.5052 18.8491 11.5052 15.8439C11.5052 12.8387 13.9501 10.3937 16.9554 10.3937C19.9606 10.3937 22.4056 12.8387 22.4056 15.8439C22.4056 18.8491 19.9606 21.2941 16.9554 21.2941Z" fill="#333333"/>
<path d="M17.147 27.5035L16.7464 26.9804C16.5858 26.7708 16.2858 26.731 16.0761 26.8915C15.8665 27.0521 15.8267 27.3521 15.9872 27.5617L16.3879 28.0849C16.482 28.2078 16.6241 28.2724 16.7678 28.2724C16.8692 28.2724 16.9714 28.2402 17.0581 28.1738C17.2677 28.0132 17.3076 27.7132 17.147 27.5035Z" fill="#333333"/>
<path d="M15.4939 25.347L14.2917 23.7772C14.1311 23.5676 13.831 23.5279 13.6214 23.6884C13.4118 23.8489 13.372 24.149 13.5325 24.3586L14.7347 25.9284C14.8289 26.0513 14.9709 26.1159 15.1147 26.1159C15.2161 26.1159 15.3182 26.0837 15.405 26.0173C15.6146 25.8567 15.6544 25.5566 15.4939 25.347Z" fill="#333333"/>
</svg>
