<svg width="83" height="127" viewBox="0 0 83 127" fill="none" xmlns="http://www.w3.org/2000/svg">
<path d="M76.2088 64.709C75.7013 63.6705 75.7013 62.4795 76.2088 61.4412L80.9138 51.8162C83.5333 46.4571 81.4578 40.0696 76.1886 37.2739L66.725 32.2526C65.704 31.7111 65.004 30.7472 64.8042 29.6092L62.9534 19.0568C61.9228 13.1815 56.488 9.23345 50.583 10.0689L39.9754 11.5694C38.8304 11.731 37.6983 11.3629 36.8677 10.5595L29.168 3.11081C24.8807 -1.03681 18.1643 -1.03706 13.8772 3.11081L6.17719 10.5602C5.34639 11.3639 4.21425 11.7313 3.06955 11.5702L-7.53801 10.0697C-13.4451 9.2337 -18.8778 13.1822 -19.9085 19.0575L-21.7593 29.6094C-21.9591 30.7477 -22.6591 31.7113 -23.6798 32.2531L-33.1435 37.2744C-38.4126 40.0699 -40.4882 46.4579 -37.8686 51.817L-33.1639 61.4417C-32.6564 62.4802 -32.6564 63.6712 -33.1639 64.7095L-37.8689 74.3342C-40.4884 79.6933 -38.4129 86.0808 -33.1437 88.8765L-23.6801 93.8978C-22.6591 94.4394 -21.9591 95.4033 -21.7593 96.5413L-19.9085 107.094C-18.9702 112.442 -14.384 116.193 -9.11314 116.193C-8.59401 116.193 -8.06725 116.156 -7.53777 116.081L3.0698 114.581C4.21376 114.418 5.34663 114.787 6.17744 115.591L13.8772 123.039C16.0212 125.113 18.7714 126.15 21.5225 126.15C24.2729 126.15 27.0247 125.113 29.1678 123.039L36.8677 115.591C37.6986 114.787 38.8309 114.42 39.9754 114.581L50.583 116.081C56.4907 116.917 61.9228 112.969 62.9534 107.093L64.8045 96.5415C65.0043 95.4033 65.7043 94.4396 66.725 93.8978L76.1886 88.8765C81.4578 86.0811 83.5333 79.6931 80.9138 74.334L76.2088 64.709ZM72.7784 82.4491L63.3148 87.4704C60.2976 89.0717 58.2282 91.9194 57.6382 95.284L55.7873 105.836C55.4387 107.824 53.6009 109.159 51.602 108.877L40.9944 107.377C37.6116 106.897 34.2642 107.986 31.809 110.361L24.109 117.809C22.6588 119.212 20.3864 119.212 18.9357 117.809L11.2359 110.361C9.1609 108.353 6.44822 107.266 3.61628 107.266C3.0974 107.266 2.57432 107.302 2.05051 107.376L-8.55706 108.877C-10.5542 109.159 -12.3935 107.824 -12.7424 105.836L-14.5935 95.2835C-15.1838 91.9189 -17.2529 89.0709 -20.2704 87.4702L-29.734 82.4489C-31.5168 81.503 -32.219 79.342 -31.3328 77.5288L-26.6278 67.9039C-25.1278 64.8349 -25.1278 61.3151 -26.6278 58.2461L-31.3328 48.6211C-32.219 46.808 -31.5168 44.6469 -29.734 43.7011L-20.2704 38.6798C-17.2532 37.0785 -15.1838 34.2308 -14.5937 30.8662L-12.7429 20.3141C-12.394 18.3262 -10.5565 16.9908 -8.55755 17.2732L2.05002 18.7737C5.43163 19.2524 8.78024 18.1641 11.2355 15.7892L18.9354 8.34056C20.3857 6.93765 22.658 6.93765 24.1088 8.34056L31.8085 15.7892C34.2637 18.1644 37.6118 19.2524 40.9939 18.7737L51.6015 17.2732C53.5989 16.9906 55.4382 18.3262 55.7868 20.3141L57.6377 30.8664C58.228 34.2311 60.2971 37.079 63.3146 38.6798L72.7782 43.7011C74.561 44.6469 75.2632 46.808 74.377 48.6211L69.672 58.2459C68.1721 61.3146 68.1721 64.8349 69.672 67.9036L74.377 77.5283C75.2635 79.342 74.5613 81.5033 72.7784 82.4491Z" fill="url(#paint0_linear)"/>
<g opacity="0.5">
<path d="M48.1034 36.4952C46.683 35.0745 44.3793 35.0745 42.9587 36.4952L-5.05884 84.5129C-6.47949 85.9336 -6.47949 88.237 -5.05884 89.6577C-4.34852 90.368 -3.41743 90.7233 -2.48659 90.7233C-1.55576 90.7233 -0.624424 90.3682 0.0856544 89.6577L48.1032 41.6402C49.5243 40.2193 49.5243 37.9161 48.1034 36.4952Z" fill="#4BD274"/>
</g>
<g opacity="0.5">
<path d="M6.97081 30.3359C-0.384241 30.3359 -6.36816 36.3199 -6.36816 43.6749C-6.36816 51.03 -0.384241 57.0139 6.97081 57.0139C14.3259 57.0139 20.3098 51.03 20.3098 43.6749C20.3098 36.3199 14.3259 30.3359 6.97081 30.3359ZM6.97081 49.7379C3.62763 49.7379 0.907795 47.0181 0.907795 43.6747C0.907795 40.3315 3.62763 37.6117 6.97081 37.6117C10.314 37.6117 13.0341 40.3315 13.0341 43.6747C13.0338 47.0181 10.314 49.7379 6.97081 49.7379Z" fill="#4BD274"/>
</g>
<g opacity="0.5">
<path d="M36.0736 69.1367C28.7185 69.1367 22.7346 75.1206 22.7346 82.4757C22.7346 89.8307 28.7185 95.8147 36.0736 95.8147C43.4286 95.8147 49.4126 89.8307 49.4126 82.4757C49.4126 75.1206 43.4286 69.1367 36.0736 69.1367ZM36.0736 88.5387C32.7304 88.5387 30.0103 85.8189 30.0103 82.4757C30.0103 79.1325 32.7302 76.4127 36.0736 76.4127C39.4168 76.4127 42.1366 79.1325 42.1366 82.4757C42.1366 85.8189 39.4168 88.5387 36.0736 88.5387Z" fill="#4BD274"/>
</g>
<defs>
<linearGradient id="paint0_linear" x1="-47" y1="115" x2="82" y2="51" gradientUnits="userSpaceOnUse">
<stop stop-color="#4BD274"/>
<stop offset="1" stop-color="#4BD274" stop-opacity="0"/>
</linearGradient>
</defs>
</svg>
