<svg width="38" height="38" viewBox="0 0 38 38" fill="none" xmlns="http://www.w3.org/2000/svg">
<path d="M23.6875 27.1094C23.4288 27.1094 23.2188 27.3194 23.2188 27.5781C23.2188 27.8369 23.4288 28.0469 23.6875 28.0469C23.9463 28.0469 24.1562 27.8369 24.1562 27.5781C24.1562 27.3194 23.9463 27.1094 23.6875 27.1094Z" fill="#333333"/>
<path d="M14.3125 27.1094C14.0538 27.1094 13.8438 27.3194 13.8438 27.5781C13.8438 27.8369 14.0538 28.0469 14.3125 28.0469C14.5713 28.0469 14.7812 27.8369 14.7812 27.5781C14.7812 27.3194 14.5713 27.1094 14.3125 27.1094Z" fill="#333333"/>
<path d="M27.9834 24.6817C27.4557 23.865 26.7306 23.216 25.8812 22.7969C25.8095 22.7304 25.7174 22.6858 25.615 22.6744C25.0006 22.4136 24.353 22.2812 23.6875 22.2812H22.2812V21.0445C23.095 20.3463 23.6801 19.4215 23.9638 18.3906H24.1562C25.1901 18.3906 26.0312 17.5495 26.0312 16.5156C26.0312 16.0257 25.8422 15.5793 25.5333 15.2448C25.5628 15.2198 25.5916 15.1938 25.6193 15.1661C25.885 14.9005 26.0312 14.5473 26.0312 14.1719C26.0312 13.5549 25.6316 13.0297 25.0777 12.8408C24.9121 10.6853 23.3993 8.84331 21.3164 8.266C21.193 7.62137 20.661 7 19.9375 7H18.0625C17.339 7 16.807 7.62137 16.6836 8.266C14.6009 8.84327 13.0883 10.6849 12.9224 12.8402C12.7207 12.9085 12.5358 13.0226 12.3807 13.1776C12.115 13.4433 11.9688 13.7964 11.9688 14.1719C11.9688 14.6014 12.1625 14.9863 12.467 15.2445C12.158 15.5789 11.9688 16.0255 11.9688 16.5156C11.9688 17.5495 12.8099 18.3906 13.8438 18.3906H14.0349C14.2717 19.2511 14.7207 20.0411 15.3471 20.6936C15.4648 20.8164 15.5896 20.9333 15.7188 21.0442V22.2812H14.3125C13.647 22.2812 12.9993 22.4136 12.385 22.6743C12.2826 22.6858 12.1905 22.7303 12.1189 22.7968C11.2694 23.216 10.5443 23.865 10.0166 24.6817C9.45377 25.5529 9.15625 26.5545 9.15625 27.5781V30.5312C9.15625 30.7901 9.36611 31 9.625 31H28.375C28.6339 31 28.8438 30.7901 28.8438 30.5312V27.5781C28.8438 26.5545 28.5462 25.5529 27.9834 24.6817ZM11.9688 30.0625H10.0938V27.5781C10.0938 26.1523 10.8242 24.7857 11.9688 23.9745V30.0625ZM24.1562 17.4531H24.1349C24.1488 17.2972 24.1562 17.1407 24.1562 16.9844V15.5781C24.6732 15.5781 25.0938 15.9987 25.0938 16.5156C25.0938 17.0326 24.6732 17.4531 24.1562 17.4531ZM16.6562 9.25652V11.3594C16.6562 11.6183 16.8661 11.8281 17.125 11.8281C17.3839 11.8281 17.5938 11.6183 17.5938 11.3594V8.64358C17.5938 8.64236 17.5938 8.64114 17.5938 8.63992V8.54688C17.5938 8.25644 17.8391 7.9375 18.0625 7.9375H19.9375C20.1609 7.9375 20.4062 8.25644 20.4062 8.54688V8.63992C20.4062 8.64114 20.4062 8.64236 20.4062 8.64358V11.3594C20.4062 11.6183 20.6161 11.8281 20.875 11.8281C21.1339 11.8281 21.3438 11.6183 21.3438 11.3594V9.25652C22.8573 9.79216 23.95 11.1618 24.13 12.7656H13.87C14.05 11.1618 15.1427 9.79216 16.6562 9.25652ZM13.8438 17.4531C13.3268 17.4531 12.9062 17.0326 12.9062 16.5156C12.9062 15.9987 13.3268 15.5781 13.8438 15.5781V16.9844C13.8438 17.1407 13.8512 17.2972 13.8651 17.4531H13.8438ZM13.8438 14.6406H13.375C13.1165 14.6406 12.9062 14.4303 12.9062 14.1719C12.9062 14.0468 12.955 13.9291 13.0436 13.8406C13.1323 13.7519 13.2499 13.7031 13.375 13.7031H24.625C24.8835 13.7031 25.0938 13.9134 25.0938 14.1719C25.0938 14.2969 25.045 14.4146 24.9564 14.5032C24.8678 14.5918 24.7501 14.6406 24.625 14.6406H24.1562H23.6875H14.3125H13.8438ZM14.8664 17.8367C14.8655 17.8316 14.8646 17.8265 14.8635 17.8215C14.809 17.5464 14.7812 17.2648 14.7812 16.9844V15.5781H23.2188V16.9844C23.2188 17.2646 23.191 17.546 23.1365 17.8213C23.1354 17.8264 23.1345 17.8315 23.1336 17.8366C22.9241 18.8822 22.3443 19.8182 21.5001 20.4729C20.7667 21.0426 19.9022 21.3438 19 21.3438C18.0978 21.3438 17.2333 21.0426 16.4992 20.4724C16.3311 20.3424 16.1712 20.1985 16.0236 20.0446C15.4323 19.4286 15.0324 18.6654 14.8664 17.8367ZM18.5312 30.0625H14.7812V28.9844C14.7812 28.7255 14.5714 28.5156 14.3125 28.5156C14.0536 28.5156 13.8438 28.7255 13.8438 28.9844V30.0625H12.9062V23.4753C13.2105 23.3606 13.5239 23.2842 13.8438 23.2465V26.1719C13.8438 26.4308 14.0536 26.6406 14.3125 26.6406C14.5714 26.6406 14.7812 26.4308 14.7812 26.1719V23.2188H15.9866L18.5312 25.8906V30.0625ZM16.6562 22.5625V21.6894C17.3796 22.0782 18.1763 22.2812 19 22.2812C19.8238 22.2812 20.6205 22.0782 21.3438 21.6895V22.5625L19 25.0234L16.6562 22.5625ZM25.0938 30.0625H24.1562V28.9844C24.1562 28.7255 23.9464 28.5156 23.6875 28.5156C23.4286 28.5156 23.2188 28.7255 23.2188 28.9844V30.0625H19.4688V25.8906L22.0134 23.2188H23.2188V26.1719C23.2188 26.4308 23.4286 26.6406 23.6875 26.6406C23.9464 26.6406 24.1562 26.4308 24.1562 26.1719V23.2465C24.4761 23.2842 24.7895 23.3607 25.0938 23.4754V30.0625ZM27.9062 30.0625H26.0312V23.9744C27.1758 24.7857 27.9062 26.1523 27.9062 27.5781V30.0625Z" fill="#333333"/>
</svg>
