<svg width="34" height="38" viewBox="0 0 34 38" fill="none" xmlns="http://www.w3.org/2000/svg">
<path d="M26.8492 23.1221C25.9521 22.6044 24.9193 22.4362 23.9128 22.6389L20.2697 18.9973L23.9156 15.353C24.1877 15.407 24.461 15.4333 24.7321 15.4332C26.2114 15.4332 27.6223 14.6505 28.3884 13.3242C28.9518 12.3487 29.1015 11.2124 28.8098 10.1244C28.5181 9.0364 27.8201 8.12712 26.8443 7.56397C24.83 6.40164 22.2451 7.09396 21.0822 9.10746C20.5642 10.0042 20.3959 11.0366 20.5987 12.0427L16.9554 15.6844L16.6596 15.3887C16.4764 15.2057 16.1797 15.2058 15.9967 15.3889C15.8137 15.5719 15.8138 15.8687 15.9969 16.0517L16.2924 16.3471L14.304 18.3346L10.8076 14.8396L12.7942 12.8504L13.0134 13.0695C13.1965 13.2525 13.4932 13.2524 13.6763 13.0694C13.8593 12.8863 13.8592 12.5895 13.6761 12.4066L13.3093 12.0399C13.658 10.2833 12.8496 8.47504 11.2796 7.56894C10.0633 6.86706 8.58251 6.81583 7.31856 7.43208C6.89925 7.63648 6.68098 7.90078 6.66992 8.21767C6.65904 8.5287 6.84727 8.79821 7.22931 9.01869L8.48764 9.74485C8.70188 9.86849 8.70188 9.92839 8.70188 10.037V10.5757C8.70188 10.9116 8.66851 10.9693 8.37745 11.1373L7.91076 11.4066C7.8196 11.4593 7.76453 11.4911 7.55005 11.3673L6.29177 10.6411C5.90973 10.4206 5.5822 10.3925 5.31832 10.5575C5.04947 10.7255 4.92967 11.0466 4.9622 11.5118C5.06039 12.9142 5.84519 14.1706 7.06152 14.8725C7.95857 15.3903 8.99154 15.5584 9.99785 15.3557L13.641 18.9974L9.99513 22.6417C8.23792 22.2929 6.42886 23.101 5.52239 24.6704C4.95896 25.6459 4.80931 26.7822 5.10094 27.8702C5.39261 28.9582 6.0906 29.8675 7.06639 30.4306C7.72905 30.813 8.4531 30.9948 9.16834 30.9947C10.6272 30.9946 12.0482 30.2383 12.8285 28.8872C13.3465 27.9905 13.5148 26.9581 13.312 25.952L16.9553 22.3103L20.6013 25.9547C20.2526 27.7114 21.061 29.5197 22.631 30.4257C23.2825 30.8017 24.0098 30.991 24.7392 30.991C25.3713 30.991 26.0052 30.8487 26.592 30.5626C27.0113 30.3582 27.2296 30.0939 27.2407 29.777C27.2515 29.4659 27.0634 29.1965 26.6813 28.976L25.423 28.2498C25.2088 28.1262 25.2087 28.0663 25.2087 27.9577V27.4189C25.2087 27.0831 25.2421 27.0253 25.5331 26.8573L25.9998 26.588C26.091 26.5354 26.1461 26.5036 26.3605 26.6273L27.6188 27.3535C28.0008 27.574 28.3284 27.6021 28.5923 27.4372C28.8611 27.2691 28.981 26.948 28.9484 26.4829C28.8504 25.0804 28.0656 23.8241 26.8492 23.1221ZM7.53008 14.0607C6.5991 13.5234 5.99316 12.5683 5.90139 11.4982L7.08153 12.1792C7.37466 12.3484 7.82822 12.5366 8.37932 12.2186L8.84606 11.9493C9.4243 11.6155 9.63929 11.2433 9.63934 10.5758V10.037C9.63934 9.40077 9.24952 9.10221 8.95625 8.93296L7.77648 8.25212C8.74969 7.79659 9.88002 7.84355 10.8111 8.38083C12.0594 9.10127 12.6885 10.5546 12.37 11.9486L9.90603 14.4158C9.09447 14.6033 8.2553 14.4792 7.53008 14.0607ZM21.8939 9.5763C22.7985 8.01027 24.809 7.47178 26.3758 8.37595C27.1347 8.81391 27.6775 9.52109 27.9043 10.3671C28.1311 11.2132 28.0147 12.0968 27.5766 12.8553C26.9806 13.8871 25.8835 14.4959 24.7328 14.4959C24.4919 14.4959 24.2485 14.4689 24.007 14.4138L21.5387 11.9508C21.3512 11.1397 21.4753 10.301 21.8939 9.5763ZM12.0169 28.4184C11.1123 29.9844 9.10178 30.5229 7.535 29.6187C6.77608 29.1807 6.23323 28.4736 6.00642 27.6275C5.77962 26.7815 5.89604 25.8978 6.33414 25.1392C6.93009 24.1074 8.02728 23.4987 9.1779 23.4987C9.41886 23.4987 9.66226 23.5256 9.90378 23.5808L12.3722 26.0438C12.5595 26.855 12.4355 27.6936 12.0169 28.4184ZM12.796 25.1425L10.8059 23.1567L21.1148 12.8521L23.1048 14.8379L12.796 25.1425ZM17.6183 21.6476L19.6067 19.66L23.1032 23.155L21.1165 25.1442L17.6183 21.6476ZM26.8292 25.8154C26.5361 25.6462 26.0826 25.4581 25.5315 25.7761L25.0647 26.0454C24.4865 26.3791 24.2715 26.7514 24.2715 27.4188V27.9577C24.2716 28.5939 24.6614 28.8924 24.9546 29.0617L26.1343 29.7425C25.1612 30.1981 24.0307 30.1511 23.0997 29.6138C21.8513 28.8933 21.2222 27.44 21.5408 26.0459L24.0047 23.5788C24.8164 23.3914 25.6555 23.5155 26.3807 23.934C27.3117 24.4713 27.9176 25.4263 28.0094 26.4965L26.8292 25.8154Z" fill="#333333"/>
<path d="M23.0949 12.434L24.501 13.2455C24.5734 13.2874 24.6543 13.3083 24.7352 13.3083C24.8161 13.3083 24.897 13.2874 24.9695 13.2455L26.3755 12.434C26.5207 12.3503 26.61 12.1956 26.61 12.0281V10.4052C26.61 10.2377 26.5207 10.0829 26.3755 9.99923L24.9695 9.18777C24.8246 9.1041 24.6459 9.10405 24.501 9.18777L23.0949 9.99923C22.9497 10.0829 22.8604 10.2377 22.8604 10.4052V12.0281C22.8604 12.1956 22.9497 12.3503 23.0949 12.434ZM23.7978 10.6758L24.7352 10.1348L25.6726 10.6758V11.7574L24.7352 12.2984L23.7978 11.7574V10.6758Z" fill="#333333"/>
<path d="M10.8158 25.5617L9.40967 24.7502C9.26465 24.6666 9.08612 24.6666 8.9411 24.7502L7.535 25.5617C7.38993 25.6454 7.3006 25.8002 7.3006 25.9677V27.5905C7.3006 27.758 7.38998 27.9128 7.535 27.9965L8.9411 28.8079C9.01361 28.8498 9.09446 28.8707 9.17541 28.8707C9.25635 28.8707 9.33721 28.8498 9.40971 28.8079L10.8158 27.9965C10.9609 27.9128 11.0502 27.758 11.0502 27.5905V25.9677C11.0502 25.8002 10.9608 25.6454 10.8158 25.5617ZM10.1128 27.3199L9.17536 27.8608L8.23796 27.3199V26.2383L9.17536 25.6973L10.1128 26.2383V27.3199Z" fill="#333333"/>
<path d="M14.8366 14.6991C15.0954 14.6991 15.3053 14.4893 15.3053 14.2304C15.3053 13.9716 15.0954 13.7617 14.8366 13.7617H14.8363C14.5774 13.7617 14.3677 13.9716 14.3677 14.2304C14.3677 14.4893 14.5777 14.6991 14.8366 14.6991Z" fill="#333333"/>
</svg>
