<svg width="81" height="127" viewBox="0 0 81 127" fill="none" xmlns="http://www.w3.org/2000/svg">
<path opacity="0.5" d="M11.9983 88.6484C8.1402 88.6484 4.90625 91.8824 4.90625 95.7404C4.90625 99.5985 8.1402 102.832 11.9983 102.832C15.7145 102.832 19.0903 99.5985 18.9201 95.9107C19.0903 91.854 15.8847 88.6484 11.9983 88.6484Z" fill="#EB5757"/>
<path d="M77.6419 113.784C82.0956 106.096 82.124 96.9335 77.6986 89.2742L33.2743 12.3401C28.8772 4.59562 20.9342 0 12.0266 0C3.11906 0 -4.82398 4.62399 -9.22103 12.3117L-53.7021 89.3309C-58.1275 97.0754 -58.0991 106.295 -53.617 113.983C-49.1916 121.585 -41.2769 126.153 -32.4261 126.153H56.3091C65.1883 126.153 73.1597 121.529 77.6419 113.784ZM67.9967 108.224C65.5287 112.479 61.16 115.004 56.2807 115.004H-32.4544C-37.277 115.004 -41.6173 112.536 -44.0286 108.366C-46.4682 104.139 -46.4966 99.0895 -44.057 94.8343L0.424099 17.8435C2.83538 13.6167 7.14732 11.1203 12.0266 11.1203C16.8775 11.1203 21.2179 13.645 23.6291 17.8719L68.0818 94.8627C70.4647 99.0044 70.4364 103.997 67.9967 108.224Z" fill="url(#paint0_linear)"/>
<path opacity="0.5" d="M10.2394 38.8643C6.86363 39.8288 4.7644 42.8925 4.7644 46.6088C4.93461 48.8498 5.07645 51.1193 5.24666 53.3603C5.72892 61.8991 6.21117 70.2677 6.69343 78.8065C6.86363 81.7 9.10471 83.7992 11.9982 83.7992C14.8918 83.7992 17.1612 81.5582 17.3031 78.6362C17.3031 76.8774 17.3031 75.2604 17.4733 73.4733C17.7853 67.9982 18.1257 62.5232 18.4378 57.0482C18.608 53.5022 18.92 49.9562 19.0903 46.4102C19.0903 45.1336 18.92 43.9989 18.4378 42.8642C16.991 39.687 13.6152 38.07 10.2394 38.8643Z" fill="#EB5757"/>
<defs>
<linearGradient id="paint0_linear" x1="-74" y1="134" x2="72.5" y2="29" gradientUnits="userSpaceOnUse">
<stop stop-color="#EB5757"/>
<stop offset="1" stop-color="#EB5757" stop-opacity="0"/>
</linearGradient>
</defs>
</svg>
