<svg width="24" height="24" viewBox="0 0 24 24" fill="none" xmlns="http://www.w3.org/2000/svg">
<path d="M17.5034 0H6.49658C2.91431 0 0 2.91431 0 6.49658V17.5036C0 21.0857 2.91431 24 6.49658 24H17.5036C21.0857 24 24 21.0857 24 17.5036V6.49658C24 2.91431 21.0857 0 17.5034 0V0ZM22.593 17.5036C22.593 20.3099 20.3099 22.593 17.5034 22.593H6.49658C3.69012 22.593 1.40698 20.3099 1.40698 17.5036V6.49658C1.40698 3.69012 3.69012 1.40698 6.49658 1.40698H17.5036C20.3099 1.40698 22.593 3.69012 22.593 6.49658V17.5036Z" fill="#EB5757"/>
<path d="M12 5.4375C8.38147 5.4375 5.43768 8.38129 5.43768 11.9998C5.43768 15.6183 8.38147 18.5621 12 18.5621C15.6185 18.5621 18.5623 15.6183 18.5623 11.9998C18.5623 8.38129 15.6185 5.4375 12 5.4375ZM12 17.1552C9.15747 17.1552 6.84467 14.8425 6.84467 11.9998C6.84467 9.15729 9.15747 6.84448 12 6.84448C14.8427 6.84448 17.1553 9.15729 17.1553 11.9998C17.1553 14.8425 14.8427 17.1552 12 17.1552Z" fill="#EB5757"/>
<path d="M18.7192 3.10547C17.6499 3.10547 16.7802 3.9754 16.7802 5.04456C16.7802 6.11389 17.6499 6.98383 18.7192 6.98383C19.7886 6.98383 20.6585 6.11389 20.6585 5.04456C20.6585 3.97522 19.7886 3.10547 18.7192 3.10547ZM18.7192 5.57666C18.4259 5.57666 18.1871 5.33789 18.1871 5.04456C18.1871 4.75104 18.4259 4.51245 18.7192 4.51245C19.0128 4.51245 19.2515 4.75104 19.2515 5.04456C19.2515 5.33789 19.0128 5.57666 18.7192 5.57666Z" fill="#EB5757"/>
</svg>
