<svg width="24" height="24" viewBox="0 0 24 24" fill="none" xmlns="http://www.w3.org/2000/svg">
<g clip-path="url(#clip0_10872_44527)">
<path d="M14.26 18.6818C9.45 18.6818 4.94 13.6818 5.46 8.89178C5.50855 8.21441 5.73633 7.56212 6.12 7.00178C6.37005 6.52474 6.75951 6.13521 7.23652 5.8851C7.71352 5.63498 8.25542 5.53615 8.79 5.60178C9.3779 5.84979 9.90955 6.21419 10.3529 6.67305C10.7963 7.1319 11.1423 7.67572 11.37 8.27178C11.4483 8.53043 11.4552 8.80543 11.3901 9.0677C11.3249 9.32997 11.1902 9.56978 11 9.76178C10 10.5418 10.37 11.3318 10.87 12.1418C11.2929 12.814 11.9203 13.3327 12.66 13.6218C12.9049 13.7714 13.1956 13.8275 13.4786 13.7798C13.7616 13.732 14.0178 13.5835 14.2 13.3618C14.3541 13.1482 14.5555 12.9731 14.7884 12.8502C15.0213 12.7273 15.2794 12.6598 15.5427 12.653C15.8059 12.6462 16.0672 12.7003 16.3061 12.8111C16.545 12.9219 16.7551 13.0864 16.92 13.2918C17.8 14.1118 18.98 14.8518 18.48 16.3818C17.98 17.9118 16.28 18.6918 14.26 18.6818ZM13.76 15.6818C12.3486 15.5702 11.0241 14.9557 10.0275 13.95C9.03099 12.9442 8.42861 11.6142 8.33 10.2018C8.32608 9.99504 8.37116 9.79032 8.46154 9.60435C8.55191 9.41837 8.68503 9.25643 8.85 9.13178C9.12 8.91178 9.62 8.75178 9.37 8.29178C9.12 7.83178 8.86 7.46178 8.37 7.45178C7.88 7.44178 7.66 7.86178 7.49 8.23178C7.16785 8.9068 7.06975 9.66709 7.21 10.4018C7.53848 12.0113 8.33718 13.4871 9.50495 14.6425C10.6727 15.7978 12.1571 16.5806 13.77 16.8918C14.5079 17.0182 15.2668 16.8876 15.92 16.5218C16.28 16.3418 16.72 16.1118 16.62 15.6118C16.5549 15.415 16.4491 15.2341 16.3095 15.0807C16.17 14.9274 15.9998 14.8051 15.81 14.7218C15.35 14.4518 15.16 14.9218 14.95 15.1918C14.8237 15.3853 14.6443 15.5383 14.4332 15.6323C14.2221 15.7263 13.9883 15.7574 13.76 15.7218V15.6818Z" fill="#00E676"/>
<path d="M12 0C9.96914 0.003439 7.97237 0.522246 6.19668 1.50784C4.421 2.49342 2.9245 3.91355 1.84733 5.63522C0.770166 7.35689 0.14757 9.32378 0.0378521 11.3517C-0.0718663 13.3796 0.334882 15.4022 1.22001 17.23L0.0600065 23.94L6.37001 22.6L6.29001 22.54C8.04001 23.4998 10.0041 24.002 12 24C15.1826 24 18.2349 22.7357 20.4853 20.4853C22.7357 18.2348 24 15.1826 24 12C24 8.8174 22.7357 5.76516 20.4853 3.51472C18.2349 1.26428 15.1826 0 12 0V0ZM12 22.51C10.151 22.5075 8.33577 22.0141 6.74001 21.08L4.68001 21.5L1.91001 22L2.34001 19.09L2.67001 16.8C1.89664 15.3181 1.49187 13.6716 1.49001 12C1.49001 9.92132 2.10641 7.88932 3.26126 6.16096C4.41611 4.4326 6.05755 3.0855 7.978 2.29003C9.89846 1.49455 12.0117 1.28642 14.0504 1.69195C16.0891 2.09748 17.9618 3.09846 19.4317 4.56831C20.9015 6.03816 21.9025 7.91086 22.3081 9.9496C22.7136 11.9883 22.5055 14.1016 21.71 16.022C20.9145 17.9425 19.5674 19.5839 17.839 20.7387C16.1107 21.8936 14.0787 22.51 12 22.51V22.51Z" fill="#00E676"/>
</g>
<defs>
<clipPath id="clip0_10872_44527">
<rect width="24" height="24" fill="white"/>
</clipPath>
</defs>
</svg>
