<svg width="24" height="24" viewBox="0 0 24 24" fill="none" xmlns="http://www.w3.org/2000/svg">
<path d="M23.25 11.625H20.0303L23.5151 8.14014C23.6618 7.99352 23.6618 7.75652 23.5151 7.60989L16.3901 0.484892C16.2435 0.338267 16.0065 0.338267 15.8599 0.484892L4.71975 11.625H0.75C0.542625 11.625 0.375 11.793 0.375 12V21.75C0.375 21.957 0.542625 22.125 0.75 22.125H6.21975L7.60988 23.5151C7.683 23.5883 7.779 23.625 7.875 23.625C7.971 23.625 8.067 23.5883 8.14013 23.5151L9.53063 22.125H23.25C23.4574 22.125 23.625 21.957 23.625 21.75V12C23.625 11.793 23.4574 11.625 23.25 11.625ZM16.125 1.28027L22.7198 7.87502L18.9698 11.625H16.1066C16.0208 10.665 15.6068 9.77327 14.9168 9.08327C13.3088 7.47527 10.6916 7.47489 9.08288 9.08327C8.39325 9.77327 7.97925 10.665 7.893 11.625H5.77988L16.125 1.28027ZM10.2101 11.625C10.1591 11.3813 10.2274 11.1206 10.4089 10.9395L11.0948 11.625H10.2101ZM14.2556 11.625C14.2144 11.5706 14.1701 11.5181 14.1214 11.4698C13.536 10.8851 12.585 10.8848 12 11.4698L10.9391 10.4093C11.2226 10.1261 11.7161 10.1261 11.9996 10.4093L12.5299 9.87902C12.2464 9.59589 11.8699 9.43989 11.4694 9.43989C11.0689 9.43989 10.692 9.59589 10.4089 9.87902L10.4085 9.87939L10.1434 9.61427L9.61313 10.1445L9.87825 10.4096C9.54862 10.7393 9.40275 11.1859 9.44963 11.6258H8.64675C8.73038 10.8664 9.06488 10.1625 9.61275 9.61427C10.929 8.29839 13.0699 8.29877 14.3861 9.61427C14.934 10.1625 15.2689 10.8664 15.3521 11.6258H14.2556V11.625ZM7.875 22.7198L7.28025 22.125H8.46975L7.875 22.7198ZM22.875 21.375H1.125V12.375H22.875V21.375Z" fill="white"/>
<path d="M10.875 18H10.125C10.125 18.8273 10.7977 19.5 11.625 19.5V19.875H12.375V19.5C13.2023 19.5 13.875 18.8273 13.875 18C13.875 17.1728 13.2023 16.5 12.375 16.5V15C12.7886 15 13.125 15.3364 13.125 15.75H13.875C13.875 14.9228 13.2023 14.25 12.375 14.25V13.875H11.625V14.25C10.7977 14.25 10.125 14.9228 10.125 15.75C10.125 16.5773 10.7977 17.25 11.625 17.25V18.75C11.2114 18.75 10.875 18.4136 10.875 18ZM10.875 15.75C10.875 15.3364 11.2114 15 11.625 15V16.5C11.2114 16.5 10.875 16.1636 10.875 15.75ZM12.375 17.25C12.7886 17.25 13.125 17.5864 13.125 18C13.125 18.4136 12.7886 18.75 12.375 18.75V17.25Z" fill="white"/>
<path d="M12 21C14.2744 21 16.125 19.1494 16.125 16.875C16.125 14.6006 14.2744 12.75 12 12.75C9.72563 12.75 7.875 14.6006 7.875 16.875C7.875 19.1494 9.72563 21 12 21ZM12 13.5C13.8611 13.5 15.375 15.0143 15.375 16.875C15.375 18.7358 13.8611 20.25 12 20.25C10.1389 20.25 8.625 18.7358 8.625 16.875C8.625 15.0143 10.1389 13.5 12 13.5Z" fill="white"/>
<path d="M22.125 20.25V13.5C22.125 13.293 21.9574 13.125 21.75 13.125H17.25V13.875H21.375V19.875H17.25V20.625H21.75C21.9574 20.625 22.125 20.457 22.125 20.25Z" fill="white"/>
<path d="M2.25 20.625H6.75V19.875H2.625V13.875H6.75V13.125H2.25C2.04263 13.125 1.875 13.293 1.875 13.5V20.25C1.875 20.457 2.04263 20.625 2.25 20.625Z" fill="white"/>
<path d="M17.25 18.375H18V19.125H17.25V18.375Z" fill="white"/>
<path d="M18.75 18.375H19.5V19.125H18.75V18.375Z" fill="white"/>
<path d="M17.25 14.625H18V15.375H17.25V14.625Z" fill="white"/>
<path d="M18.75 14.625H19.5V15.375H18.75V14.625Z" fill="white"/>
<path d="M16.227 3.53025L20.4694 7.773L17.5526 10.6898L18.0829 11.22L21.2648 8.03813C21.4114 7.8915 21.4114 7.6545 21.2648 7.50788L16.4921 2.73488C16.3515 2.59425 16.1025 2.59425 15.9619 2.73488L12.78 5.91675L13.3103 6.447L16.227 3.53025Z" fill="white"/>
<path d="M16.4899 9.62992L17.0202 9.09959L17.5505 9.62992L17.0202 10.1603L16.4899 9.62992Z" fill="white"/>
<path d="M17.55 8.56925L18.0804 8.03892L18.6107 8.56925L18.0804 9.09959L17.55 8.56925Z" fill="white"/>
<path d="M13.8385 6.97856L14.3688 6.44823L14.8992 6.97856L14.3688 7.5089L13.8385 6.97856Z" fill="white"/>
<path d="M14.8988 5.91791L15.4291 5.38757L15.9595 5.91791L15.4291 6.44824L14.8988 5.91791Z" fill="white"/>
<path d="M4.5 14.625H5.25V15.375H4.5V14.625Z" fill="white"/>
<path d="M6 14.625H6.75V15.375H6V14.625Z" fill="white"/>
<path d="M4.5 18.375H5.25V19.125H4.5V18.375Z" fill="white"/>
<path d="M6 18.375H6.75V19.125H6V18.375Z" fill="white"/>
</svg>
