<svg width="24" height="24" viewBox="0 0 24 24" fill="none" xmlns="http://www.w3.org/2000/svg">
<path d="M10.5 7.5H9.75V8.25H10.5V7.5Z" fill="white"/>
<path d="M14.25 7.5H13.5V8.25H14.25V7.5Z" fill="white"/>
<path d="M13.5 9.375H12.75C12.75 9.57391 12.671 9.76468 12.5303 9.90533C12.3897 10.046 12.1989 10.125 12 10.125C11.8011 10.125 11.6103 10.046 11.4697 9.90533C11.329 9.76468 11.25 9.57391 11.25 9.375H10.5C10.5 9.77282 10.658 10.1544 10.9393 10.4357C11.2206 10.717 11.6022 10.875 12 10.875C12.3978 10.875 12.7794 10.717 13.0607 10.4357C13.342 10.1544 13.5 9.77282 13.5 9.375Z" fill="white"/>
<path d="M19.875 18.8175V18.5062C19.8787 17.6266 19.5992 16.7692 19.0778 16.0607C18.5564 15.3523 17.8209 14.8305 16.98 14.5725L13.875 13.6012V12.2962C14.2595 12.1007 14.6113 11.8464 14.9175 11.5425C15.5078 10.9524 15.9042 10.1962 16.0537 9.37497H16.125C16.4738 9.37408 16.8113 9.25166 17.0796 9.02877C17.3479 8.80588 17.5302 8.49645 17.595 8.15372C17.6598 7.81098 17.6032 7.45638 17.4348 7.1509C17.2664 6.84543 16.9968 6.60818 16.6725 6.47997C16.6837 6.46122 16.6987 6.43872 16.71 6.41622L16.7512 6.33747C16.8304 6.17889 16.871 6.00383 16.8697 5.82657C16.8684 5.64932 16.8252 5.47488 16.7437 5.31747C16.6126 5.06551 16.3898 4.87353 16.1212 4.78122C16.0961 3.70487 15.6508 2.68107 14.8807 1.92871C14.1105 1.17636 13.0766 0.75515 12 0.75515C10.9233 0.75515 9.88939 1.17636 9.11924 1.92871C8.3491 2.68107 7.90385 3.70487 7.8787 4.78122C7.61011 4.87353 7.38726 5.06551 7.2562 5.31747C7.17468 5.47488 7.13151 5.64932 7.13021 5.82657C7.12891 6.00383 7.16951 6.17889 7.2487 6.33747L7.2862 6.41247C7.3012 6.43872 7.3162 6.45747 7.32745 6.47997C7.00306 6.60818 6.73349 6.84543 6.56512 7.1509C6.39674 7.45638 6.34009 7.81098 6.40491 8.15372C6.46972 8.49645 6.65196 8.80588 6.92026 9.02877C7.18856 9.25166 7.52615 9.37408 7.87495 9.37497H7.9462C8.06253 9.99581 8.31933 10.5818 8.69696 11.0881C9.0746 11.5945 9.56305 12.0077 10.125 12.2962V13.6012L7.01995 14.5687C6.17907 14.828 5.44377 15.3507 4.92252 16.0596C4.40127 16.7686 4.12167 17.6263 4.12495 18.5062V18.8175C3.90574 18.8943 3.71581 19.0373 3.58144 19.2267C3.44706 19.4162 3.37488 19.6427 3.37488 19.875C3.37488 20.1072 3.44706 20.3338 3.58144 20.5232C3.71581 20.7127 3.90574 20.8557 4.12495 20.9325V22.875C4.12495 22.9744 4.16446 23.0698 4.23479 23.1401C4.30511 23.2105 4.4005 23.25 4.49995 23.25H19.5C19.5994 23.25 19.6948 23.2105 19.7651 23.1401C19.8354 23.0698 19.875 22.9744 19.875 22.875V20.9325C20.0942 20.8557 20.2841 20.7127 20.4185 20.5232C20.5528 20.3338 20.625 20.1072 20.625 19.875C20.625 19.6427 20.5528 19.4162 20.4185 19.2267C20.2841 19.0373 20.0942 18.8943 19.875 18.8175ZM16.125 7.12497C16.3237 7.12557 16.5141 7.20477 16.6546 7.3453C16.7952 7.48582 16.8744 7.67624 16.875 7.87497C16.8735 8.07343 16.794 8.26334 16.6537 8.40368C16.5133 8.54401 16.3234 8.6235 16.125 8.62497V7.12497ZM7.87495 8.62497C7.6765 8.6235 7.48658 8.54401 7.34625 8.40368C7.20592 8.26334 7.12643 8.07343 7.12495 7.87497C7.12555 7.67624 7.20475 7.48582 7.34528 7.3453C7.4858 7.20477 7.67622 7.12557 7.87495 7.12497V8.62497ZM15 14.7375L15.75 14.9737V18.375C15.75 18.4744 15.7104 18.5698 15.6401 18.6401C15.5698 18.7105 15.4744 18.75 15.375 18.75C15.2755 18.75 15.1801 18.7105 15.1098 18.6401C15.0395 18.5698 15 18.4744 15 18.375V14.7375ZM14.595 2.71872C15.0457 3.26258 15.3145 3.93408 15.3637 4.63872L14.085 4.43997L14.595 2.71872ZM12 1.49997C12.7132 1.50063 13.4079 1.72779 13.9837 2.14872L13.3387 4.32747L12.9675 4.27122C12.3264 4.16997 11.6735 4.16997 11.0325 4.27122L10.6612 4.32747L10.0162 2.14872C10.5912 1.72615 11.2864 1.4988 12 1.49997ZM9.40495 2.71872L9.91495 4.43997L8.6362 4.63872C8.68302 3.93354 8.95216 3.26135 9.40495 2.71872ZM7.95745 6.07872L7.91995 6.00372C7.89372 5.95055 7.88038 5.89194 7.88103 5.83265C7.88169 5.77336 7.8963 5.71506 7.9237 5.66247C7.95003 5.6098 7.98865 5.56424 8.03629 5.52965C8.08394 5.49506 8.13922 5.47244 8.19745 5.46372L11.145 5.00997C11.7118 4.92497 12.2881 4.92497 12.855 5.00997L15.8025 5.46372C15.8607 5.47244 15.916 5.49506 15.9636 5.52965C16.0113 5.56424 16.0499 5.6098 16.0762 5.66247C16.1036 5.71506 16.1182 5.77336 16.1189 5.83265C16.1195 5.89194 16.1062 5.95055 16.08 6.00372L16.0425 6.07872C16.0053 6.1512 15.946 6.20992 15.8731 6.24634C15.8003 6.28276 15.7177 6.29498 15.6375 6.28122L12.8737 5.77872C12.2959 5.67372 11.704 5.67372 11.1262 5.77872L8.36245 6.28122C8.28218 6.29498 8.19961 6.28276 8.12677 6.24634C8.05393 6.20992 7.99461 6.1512 7.95745 6.07872ZM8.62495 8.62497V6.99372L11.2612 6.51372C11.7499 6.42747 12.25 6.42747 12.7387 6.51372L15.375 6.99372V8.62497C15.375 9.52008 15.0194 10.3785 14.3864 11.0115C13.7535 11.6444 12.8951 12 12 12C11.1048 12 10.2464 11.6444 9.61347 11.0115C8.98053 10.3785 8.62495 9.52008 8.62495 8.62497ZM13.125 12.5925V13.875C13.125 14.1733 13.0064 14.4595 12.7954 14.6705C12.5845 14.8814 12.2983 15 12 15C11.7016 15 11.4154 14.8814 11.2045 14.6705C10.9935 14.4595 10.875 14.1733 10.875 13.875V12.5887C11.2404 12.6958 11.6192 12.7501 12 12.75C12.3804 12.7492 12.7589 12.6962 13.125 12.5925ZM9.74995 14.5012L10.1962 14.3625C10.3019 14.7602 10.5361 15.1118 10.8623 15.3626C11.1885 15.6134 11.5885 15.7494 12 15.7494C12.4115 15.7494 12.8114 15.6134 13.1376 15.3626C13.4638 15.1118 13.698 14.7602 13.8037 14.3625L14.25 14.5012V17.25H9.74995V14.5012ZM8.24995 14.9737L8.99995 14.7375V18.375C8.99995 18.4744 8.96044 18.5698 8.89012 18.6401C8.81979 18.7105 8.72441 18.75 8.62495 18.75C8.5255 18.75 8.43011 18.7105 8.35979 18.6401C8.28946 18.5698 8.24995 18.4744 8.24995 18.375V14.9737ZM6.74995 22.5H4.87495V21H6.74995V22.5ZM6.74995 20.25H4.49995C4.4005 20.25 4.30511 20.2105 4.23479 20.1401C4.16446 20.0698 4.12495 19.9744 4.12495 19.875C4.12495 19.7755 4.16446 19.6801 4.23479 19.6098C4.30511 19.5395 4.4005 19.5 4.49995 19.5H6.74995V20.25ZM6.74995 18.375V18.75H4.87495V18.5062C4.87266 17.7862 5.10175 17.0845 5.52845 16.5046C5.95515 15.9246 6.55688 15.4971 7.24495 15.285L7.49995 15.2062V17.3175C7.28142 17.3953 7.09218 17.5386 6.95799 17.7278C6.82379 17.917 6.75115 18.143 6.74995 18.375ZM16.5 22.5H7.49995V18.375C7.49995 18.6733 7.61848 18.9595 7.82946 19.1705C8.04044 19.3814 8.32658 19.5 8.62495 19.5C8.92332 19.5 9.20947 19.3814 9.42045 19.1705C9.63143 18.9595 9.74995 18.6733 9.74995 18.375V18H14.25V18.375C14.25 18.6733 14.3685 18.9595 14.5795 19.1705C14.7904 19.3814 15.0766 19.5 15.375 19.5C15.6733 19.5 15.9595 19.3814 16.1704 19.1705C16.3814 18.9595 16.5 18.6733 16.5 18.375V22.5ZM16.5 17.3175V15.2062L16.755 15.2887C17.4431 15.4995 18.0451 15.9262 18.4719 16.5057C18.8987 17.0851 19.1277 17.7865 19.125 18.5062V18.75H17.25V18.375C17.2488 18.143 17.1761 17.917 17.0419 17.7278C16.9077 17.5386 16.7185 17.3953 16.5 17.3175ZM19.125 22.5H17.25V21H19.125V22.5ZM19.5 20.25H17.25V19.5H19.5C19.5994 19.5 19.6948 19.5395 19.7651 19.6098C19.8354 19.6801 19.875 19.7755 19.875 19.875C19.875 19.9744 19.8354 20.0698 19.7651 20.1401C19.6948 20.2105 19.5994 20.25 19.5 20.25Z" fill="white"/>
</svg>
