<svg width="24" height="23" viewBox="0 0 24 23" fill="none" xmlns="http://www.w3.org/2000/svg">
<g clip-path="url(#clip0_9470_51198)">
<path d="M23.4 5C23.0667 4.66667 22.6667 4.46667 22.1667 4.4C22.4 4.06667 22.5334 3.66667 22.5334 3.23333V1.33333C22.5334 0.966667 22.3667 0.633333 22.1334 0.366667C21.9 0.166667 21.5667 0 21.2 0H19.6334C19.2667 0 18.9334 0.166667 18.6667 0.4C18.4334 0.633333 18.2667 0.966667 18.2667 1.36667V3.26667C18.2667 3.7 18.4 4.1 18.6334 4.43333C18.1667 4.46667 17.7334 4.7 17.4 5.03333C17.0334 5.4 16.8 5.9 16.8 6.46667V10.1C16.8 10.3 16.9667 10.4667 17.1667 10.4667C19.3334 10.4667 21.5 10.4667 23.6334 10.4667C23.8334 10.4667 24 10.3 24 10.1V6.43333C24 5.9 23.7667 5.36667 23.4 5ZM19 1.33333C19 1.16667 19.0667 1 19.2 0.866667C19.3334 0.733333 19.4667 0.666667 19.6667 0.666667H21.2334C21.4 0.666667 21.5667 0.733333 21.7 0.866667C21.7667 1 21.8334 1.16667 21.8334 1.33333V2L20.2 1.43333C20.1 1.4 20 1.4 19.9 1.46667L19 1.96667V1.33333ZM21.8334 2.76667V3.26667C21.8334 3.66667 21.6667 4 21.4 4.26667C21.1334 4.53333 20.8 4.7 20.4 4.7C20 4.7 19.6667 4.53333 19.4 4.26667C19.1334 4 18.9667 3.66667 18.9667 3.26667V2.73333L20.1 2.16667L21.8334 2.76667ZM23.3 9.73333H22.6334V7.1C22.6334 6.9 22.4667 6.73333 22.2667 6.73333C22.0667 6.73333 21.9 6.9 21.9 7.1V9.73333H18.8334V7.1C18.8334 6.9 18.6667 6.73333 18.4667 6.73333C18.2667 6.73333 18.1 6.9 18.1 7.1V9.73333H17.4334V6.46667C17.4334 6.1 17.5667 5.76667 17.8334 5.53333C18.0667 5.3 18.4 5.13333 18.7667 5.13333H19.3334C19.6334 5.3 19.9667 5.4 20.3334 5.4C20.7 5.4 21.0334 5.3 21.3334 5.13333H21.9C22.2667 5.13333 22.6 5.26667 22.8334 5.53333C23.0667 5.76667 23.2334 6.1 23.2334 6.46667V9.73333H23.3Z" fill="white"/>
<path d="M6.6 5C6.26667 4.66667 5.83333 4.46667 5.36667 4.4C5.6 4.06667 5.73333 3.66667 5.73333 3.23333V1.9V0.366667C5.73333 0.166667 5.56667 0 5.36667 0H2.8C2.43333 0 2.1 0.166667 1.86667 0.4C1.6 0.633333 1.46667 0.966667 1.46667 1.33333V1.9V3.23333C1.46667 3.66667 1.6 4.06667 1.83333 4.4C1.33333 4.46667 0.933333 4.7 0.6 5C0.233333 5.36667 0 5.9 0 6.43333V10.0667C0 10.2667 0.166667 10.4333 0.366667 10.4333C2.53333 10.4333 4.7 10.4333 6.83333 10.4333C7.03333 10.4333 7.2 10.2667 7.2 10.0667V6.43333C7.16667 5.9 6.96667 5.36667 6.6 5ZM2.16667 1.33333C2.16667 1.16667 2.23333 1 2.36667 0.866667C2.5 0.733333 2.63333 0.666667 2.83333 0.666667H5V1.53333H2.16667V1.33333ZM2.16667 2.26667H5V3.23333C5 3.63333 4.83333 3.96667 4.56667 4.23333C4.3 4.5 3.96667 4.66667 3.56667 4.66667C3.16667 4.66667 2.83333 4.5 2.56667 4.23333C2.33333 4 2.16667 3.63333 2.16667 3.23333V2.26667ZM6.46667 9.73333H5.8V7.1C5.8 6.9 5.63333 6.73333 5.43333 6.73333C5.23333 6.73333 5.06667 6.9 5.06667 7.1V9.73333H2.06667V7.1C2.06667 6.9 1.9 6.73333 1.7 6.73333C1.5 6.73333 1.33333 6.9 1.33333 7.1V9.73333H0.666667V6.46667C0.666667 6.1 0.8 5.76667 1.06667 5.53333C1.33333 5.26667 1.66667 5.13333 2.03333 5.13333H2.6C2.9 5.3 3.23333 5.4 3.6 5.4C3.96667 5.4 4.3 5.3 4.6 5.13333H5.16667C5.53333 5.13333 5.86667 5.26667 6.1 5.53333C6.33333 5.76667 6.5 6.1 6.5 6.46667V9.73333H6.46667Z" fill="white"/>
<path d="M14.9999 5C14.6666 4.66667 14.2666 4.46667 13.7666 4.4C13.9999 4.06667 14.1332 3.66667 14.1332 3.23333V1.33333C14.1332 0.966667 13.9666 0.633333 13.7332 0.366667C13.4999 0.166667 13.1666 0 12.7666 0H11.1999C10.8332 0 10.4999 0.166667 10.2332 0.4C9.9999 0.633333 9.83324 0.966667 9.83324 1.36667V3.26667C9.83324 3.7 9.96657 4.1 10.1999 4.43333C9.76657 4.46667 9.33324 4.7 8.9999 5C8.63324 5.36667 8.3999 5.86667 8.3999 6.43333V10.0667C8.3999 10.2667 8.56657 10.4333 8.76657 10.4333C10.9332 10.4333 13.0999 10.4333 15.2332 10.4333C15.4332 10.4333 15.5999 10.2667 15.5999 10.0667V6.43333C15.5999 5.9 15.3666 5.36667 14.9999 5ZM10.5666 1.33333C10.5666 1.16667 10.6332 1 10.7666 0.866667C10.8999 0.733333 11.0332 0.666667 11.2332 0.666667H12.7999C12.9666 0.666667 13.1332 0.733333 13.2666 0.866667C13.3666 1 13.4332 1.16667 13.4332 1.33333V2C13.0666 2.06667 12.3666 2.1 11.8666 1.53333C11.7332 1.4 11.5332 1.36667 11.3666 1.5C11.1332 1.7 10.8666 1.8 10.5666 1.76667V1.33333ZM10.5666 2.46667C10.9999 2.5 11.3332 2.36667 11.5666 2.23333C12.1999 2.8 12.9666 2.8 13.4332 2.73333V3.23333C13.4332 3.63333 13.2666 3.96667 12.9999 4.23333C12.7332 4.5 12.3999 4.66667 11.9999 4.66667C11.5999 4.66667 11.2666 4.5 10.9999 4.23333C10.7332 3.96667 10.5666 3.63333 10.5666 3.23333V2.46667ZM14.8999 9.73333H14.2332V7.1C14.2332 6.9 14.0666 6.73333 13.8666 6.73333C13.6666 6.73333 13.4999 6.9 13.4999 7.1V9.73333H10.4332V7.1C10.4332 6.9 10.2666 6.73333 10.0666 6.73333C9.86657 6.73333 9.6999 6.9 9.6999 7.1V9.73333H9.03324V6.46667C9.03324 6.1 9.16657 5.76667 9.43324 5.53333C9.66657 5.3 9.9999 5.13333 10.3666 5.13333H10.9999C11.2999 5.3 11.6332 5.4 11.9999 5.4C12.3666 5.4 12.6999 5.3 12.9999 5.13333H13.5666C13.9332 5.13333 14.2666 5.26667 14.4999 5.53333C14.7332 5.76667 14.8999 6.1 14.8999 6.46667V9.73333Z" fill="white"/>
<path d="M19.3332 16.7333C19.1332 16.7333 18.9666 16.5667 18.9666 16.3667C18.9666 16.1667 19.1332 16 19.3332 16H21.4999C21.6999 16 21.8666 16.1667 21.8666 16.3667C21.8666 16.5667 21.6999 16.7333 21.4999 16.7333H19.3332Z" fill="white"/>
<path d="M18.6333 15.4326C18.4333 15.4326 18.2666 15.2659 18.2666 15.0659C18.2666 14.8659 18.4333 14.6992 18.6333 14.6992H22.1999C22.3999 14.6992 22.5666 14.8659 22.5666 15.0659C22.5666 15.2659 22.3999 15.4326 22.1999 15.4326H18.6333Z" fill="white"/>
<path d="M10.8999 16.7333C10.6999 16.7333 10.5332 16.5667 10.5332 16.3667C10.5332 16.1667 10.6999 16 10.8999 16H13.0665C13.2665 16 13.4332 16.1667 13.4332 16.3667C13.4332 16.5667 13.2665 16.7333 13.0665 16.7333H10.8999Z" fill="white"/>
<path d="M10.1999 15.4326C9.99992 15.4326 9.83325 15.2659 9.83325 15.0659C9.83325 14.8659 9.99992 14.6992 10.1999 14.6992H13.7666C13.9666 14.6992 14.1333 14.8659 14.1333 15.0659C14.1333 15.2659 13.9666 15.4326 13.7666 15.4326H10.1999Z" fill="white"/>
<path d="M2.49997 16.7333C2.29997 16.7333 2.1333 16.5667 2.1333 16.3667C2.1333 16.1667 2.29997 16 2.49997 16H4.66663C4.86663 16 5.0333 16.1667 5.0333 16.3667C5.0333 16.5667 4.86663 16.7333 4.66663 16.7333H2.49997Z" fill="white"/>
<path d="M1.80002 15.4326C1.60002 15.4326 1.43335 15.2659 1.43335 15.0659C1.43335 14.8659 1.60002 14.6992 1.80002 14.6992H5.36668C5.56668 14.6992 5.73335 14.8659 5.73335 15.0659C5.73335 15.2659 5.56668 15.4326 5.36668 15.4326H1.80002Z" fill="white"/>
<path d="M21.7668 17.4668H19.0334C18.8334 17.4668 18.6667 17.6335 18.6667 17.8335V20.5668C18.6667 20.7668 18.8334 20.9335 19.0334 20.9335H21.7668C21.9668 20.9335 22.1334 20.7668 22.1334 20.5668V17.8335C22.1334 17.6001 21.9668 17.4668 21.7668 17.4668ZM21.4334 20.2001H19.4001V18.1668H21.4334V20.2001Z" fill="white"/>
<path d="M4.9333 17.801C4.59997 17.4677 4.09997 17.2344 3.56663 17.2344C3.0333 17.2344 2.56663 17.4344 2.19997 17.801C1.86663 18.1344 1.6333 18.6344 1.6333 19.1677C1.6333 19.701 1.8333 20.1677 2.19997 20.5344C2.5333 20.8677 3.0333 21.101 3.56663 21.101C4.09997 21.101 4.56663 20.901 4.9333 20.5344C5.26663 20.201 5.49997 19.701 5.49997 19.1677C5.49997 18.6344 5.29997 18.1677 4.9333 17.801ZM4.46663 20.0344C4.2333 20.2677 3.9333 20.401 3.59997 20.401C3.26663 20.401 2.96663 20.2677 2.7333 20.0344C2.49997 19.801 2.36663 19.501 2.36663 19.1677C2.36663 18.8344 2.49997 18.5344 2.7333 18.301C2.96663 18.0677 3.26663 17.9344 3.59997 17.9344C3.9333 17.9344 4.2333 18.0677 4.46663 18.301C4.69997 18.5344 4.8333 18.8344 4.8333 19.1677C4.79997 19.501 4.66663 19.801 4.46663 20.0344Z" fill="white"/>
<path d="M13.9999 20.4652C13.4332 19.4985 12.8666 18.5319 12.2999 17.5319C12.2666 17.4652 12.2332 17.4319 12.1666 17.3985C11.9999 17.2985 11.7999 17.3652 11.6999 17.5319C11.1332 18.4985 10.5666 19.4652 10.0332 20.4319C9.99989 20.4985 9.96655 20.5652 9.96655 20.6319C9.96655 20.8319 10.1332 20.9986 10.3332 20.9986H13.6999C13.7666 20.9986 13.8332 20.9986 13.8666 20.9652C14.0332 20.8319 14.0999 20.6319 13.9999 20.4652ZM10.9332 20.2986C11.2999 19.6652 11.6666 19.0319 11.9999 18.4319C12.3666 19.0652 12.7332 19.6985 13.0666 20.2986H10.9332Z" fill="white"/>
<path d="M23.6334 12.7327H22.5334V12.3327C22.5334 12.1327 22.3667 11.966 22.1667 11.966H21.5334V11.5327C21.5334 11.3327 21.3667 11.166 21.1667 11.166H19.5667C19.3667 11.166 19.2001 11.3327 19.2001 11.5327V11.9993H18.5667C18.3667 11.9993 18.2001 12.166 18.2001 12.366V12.7327H17.1001C16.9001 12.7327 16.7334 12.8993 16.7334 13.0993V16.766C16.7334 16.966 16.9001 17.1327 17.1001 17.1327C17.3001 17.1327 17.4667 16.966 17.4667 16.766V13.466H18.2001V13.8327C18.2001 14.0327 18.3667 14.1993 18.5667 14.1993H22.1334C22.3334 14.1993 22.5001 14.0327 22.5001 13.8327V13.466H23.2334V21.666H17.5334V18.366C17.5334 18.166 17.3667 17.9993 17.1667 17.9993C16.9667 17.9993 16.8001 18.166 16.8001 18.366V22.0327C16.8001 22.2327 16.9667 22.3993 17.1667 22.3993H23.6334C23.8334 22.3993 24.0001 22.2327 24.0001 22.0327V13.066C24.0001 12.866 23.8334 12.7327 23.6334 12.7327ZM21.8334 13.4327H18.9667V12.6993H19.6001C19.8001 12.6993 19.9667 12.5327 19.9667 12.3327V11.8993H20.8667V12.3327C20.8667 12.5327 21.0334 12.6993 21.2334 12.6993H21.8667C21.8334 12.9327 21.8334 13.1993 21.8334 13.4327Z" fill="white"/>
<path d="M15.2333 12.7327H14.1333V12.3327C14.1333 12.1327 13.9666 11.966 13.7666 11.966H13.1333V11.5327C13.1333 11.3327 12.9666 11.166 12.7666 11.166H11.1666C10.9666 11.166 10.7999 11.3327 10.7999 11.5327V11.9993H10.1666C9.96659 11.9993 9.79992 12.166 9.79992 12.366V12.7327H8.69992C8.49992 12.7327 8.33325 12.8993 8.33325 13.0993V16.766C8.33325 16.966 8.49992 17.1327 8.69992 17.1327C8.89992 17.1327 9.06659 16.966 9.06659 16.766V13.466H9.79992V13.8327C9.79992 14.0327 9.96659 14.1993 10.1666 14.1993H13.7333C13.9333 14.1993 14.0999 14.0327 14.0999 13.8327V13.466H14.8333V21.666H9.09992V18.366C9.09992 18.166 8.93325 17.9993 8.73325 17.9993C8.53325 17.9993 8.36659 18.166 8.36659 18.366V22.0327C8.36659 22.2327 8.53325 22.3993 8.73325 22.3993H15.1999C15.3999 22.3993 15.5666 22.2327 15.5666 22.0327V13.066C15.5999 12.866 15.4333 12.7327 15.2333 12.7327ZM13.4333 13.4327H10.5666V12.6993H11.1999C11.3999 12.6993 11.5666 12.5327 11.5666 12.3327V11.8993H12.4666V12.3327C12.4666 12.5327 12.6333 12.6993 12.8333 12.6993H13.4666V13.4327H13.4333Z" fill="white"/>
<path d="M6.83333 12.7327H5.73333V12.3327C5.73333 12.1327 5.56667 11.966 5.36667 11.966H4.73333V11.5327C4.73333 11.3327 4.56667 11.166 4.36667 11.166H2.8C2.6 11.166 2.43333 11.3327 2.43333 11.5327V11.9993H1.8C1.6 11.9993 1.43333 12.166 1.43333 12.366V12.7327H0.366667C0.166667 12.7327 0 12.8993 0 13.0993V16.766C0 16.966 0.166667 17.1327 0.366667 17.1327C0.566667 17.1327 0.733333 16.966 0.733333 16.766V13.466H1.46667V13.8327C1.46667 14.0327 1.63333 14.1993 1.83333 14.1993H5.4C5.6 14.1993 5.76667 14.0327 5.76667 13.8327V13.466H6.5V21.666H0.7V18.366C0.7 18.166 0.533333 17.9993 0.333333 17.9993C0.133333 17.9993 0 18.1327 0 18.2993V21.966C0 22.166 0.166667 22.3327 0.366667 22.3327H6.83333C7.03333 22.3327 7.2 22.166 7.2 21.966V13.066C7.16667 12.866 7.03333 12.7327 6.83333 12.7327ZM5.03333 13.4327H2.16667V12.6993H2.8C3 12.6993 3.16667 12.5327 3.16667 12.3327V11.8993H4.06667V12.3327C4.06667 12.5327 4.23333 12.6993 4.43333 12.6993H5.06667C5.03333 12.9327 5.03333 13.1993 5.03333 13.4327Z" fill="white"/>
</g>
<defs>
<clipPath id="clip0_9470_51198">
<rect width="24" height="22.3" fill="white"/>
</clipPath>
</defs>
</svg>
