<svg width="34" height="38" viewBox="0 0 34 38" fill="none" xmlns="http://www.w3.org/2000/svg">
<path d="M28.2798 19.1649C28.3231 19.0604 28.3231 18.9425 28.2798 18.8375C28.2579 18.7848 28.2262 18.7372 28.1868 18.6974L23.0444 13.5554C22.8768 13.3878 22.6059 13.3878 22.4384 13.5554C22.2708 13.7229 22.2708 13.9938 22.4384 14.1614L26.8496 18.5727H13.7414C13.5048 18.5727 13.3128 18.7642 13.3128 19.0012C13.3128 19.2382 13.5048 19.4298 13.7414 19.4298H26.8496L22.4384 23.8411C22.2708 24.0087 22.2708 24.2795 22.4384 24.4471C22.5219 24.5307 22.6316 24.5727 22.7414 24.5727C22.8511 24.5727 22.9608 24.5307 23.0444 24.4471L28.1868 19.3047C28.2262 19.2652 28.2579 19.2177 28.2798 19.1649Z" fill="#fff"/>
<path d="M20.5985 21.1429C20.3619 21.1429 20.1699 21.3344 20.1699 21.5714V30.1429H6.45565V7.85714H20.1699V16.4286C20.1699 16.6656 20.3619 16.8571 20.5985 16.8571C20.8351 16.8571 21.0271 16.6656 21.0271 16.4286V7.42857C21.0271 7.19157 20.8351 7 20.5985 7H6.02708C5.79051 7 5.59851 7.19157 5.59851 7.42857V30.5714C5.59851 30.8084 5.79051 31 6.02708 31H20.5985C20.8351 31 21.0271 30.8084 21.0271 30.5714V21.5714C21.0271 21.3344 20.8351 21.1429 20.5985 21.1429Z" fill="#fff"/>
</svg>
