<svg width="34" height="38" viewBox="0 0 34 38" fill="none" xmlns="http://www.w3.org/2000/svg">
<path d="M30.7046 7C30.3389 7 30.0423 7.29659 30.0423 7.66232C30.0423 8.02805 30.3389 8.32464 30.7046 8.32464C31.7421 8.32464 32.5862 9.16711 32.5862 10.2026V23.3895C32.5862 24.4255 31.7421 25.2682 30.7046 25.2682H29.4446V14.6084C29.4446 13.055 28.331 11.7569 26.8594 11.4678C26.6583 11.4281 26.4507 11.4069 26.2382 11.4069H7.5196V10.2026C7.5196 9.16705 8.36366 8.32464 9.40118 8.32464H25.0517C25.4174 8.32464 25.714 8.02805 25.714 7.66232C25.714 7.29659 25.4174 7 25.0517 7H9.40118C7.63325 7 6.19495 8.43664 6.19495 10.2026V11.4072H3.10344C1.39226 11.4072 0 12.7978 0 14.5071V27.9C0 29.6094 1.39226 31 3.10344 31H26.3412C28.0524 31 29.4445 29.6094 29.4445 27.9V26.5929H30.7045C32.4725 26.5929 33.9108 25.1559 33.9108 23.3896V10.2027C33.9108 8.43671 32.4725 7 30.7046 7ZM26.3412 29.6754H3.10344C2.12254 29.6754 1.32464 28.879 1.32464 27.9V14.5071C1.32464 13.5282 2.12261 12.7318 3.10344 12.7318H26.2396C26.3623 12.7318 26.4821 12.744 26.5982 12.7664C27.4641 12.9347 28.1197 13.6973 28.1197 14.6102V25.9305C28.1197 25.9314 28.1198 25.9322 28.1198 25.9331V27.9C28.1199 28.8789 27.322 29.6754 26.3412 29.6754Z" fill="#fff"/>
<path d="M11.3979 24.3456C11.325 23.7186 11.0172 23.1514 10.531 22.7484L10.2089 22.4813C10.0544 22.3532 9.88519 22.246 9.70616 22.1602C10.0157 21.7319 10.1989 21.2067 10.1989 20.6393C10.1989 19.2033 9.02947 18.0352 7.59203 18.0352C6.1546 18.0352 4.9852 19.2034 4.9852 20.6393C4.9852 21.2067 5.16834 21.7319 5.47791 22.1601C5.29888 22.2459 5.12959 22.3532 4.97507 22.4813L4.65305 22.7482C4.16684 23.1513 3.85899 23.7185 3.78614 24.3455L3.50406 26.7752C3.48227 26.9629 3.54168 27.151 3.66738 27.2921C3.79303 27.4332 3.97305 27.514 4.16201 27.514H11.0221C11.211 27.514 11.391 27.4332 11.5167 27.2921C11.6423 27.151 11.7018 26.9629 11.68 26.7752L11.3979 24.3456ZM7.59197 19.3598C8.29906 19.3598 8.87422 19.9338 8.87422 20.6393C8.87422 21.3448 8.299 21.9187 7.59197 21.9187C6.88494 21.9187 6.30978 21.3448 6.30978 20.6393C6.30978 19.9338 6.88494 19.3598 7.59197 19.3598ZM4.90559 26.1893L5.10191 24.4984C5.13515 24.2118 5.27596 23.9525 5.49837 23.7681L5.82039 23.5012C6.02081 23.335 6.27474 23.2435 6.53543 23.2435H8.64837C8.90906 23.2435 9.16299 23.335 9.36335 23.5011L9.68543 23.7681C9.6855 23.7681 9.6855 23.7682 9.6855 23.7682C9.90784 23.9525 10.0486 24.2118 10.0819 24.4984L10.2782 26.1893H4.90559Z" fill="#fff"/>
<path d="M25.3378 23.6016H14.7221C14.3564 23.6016 14.0598 23.8981 14.0598 24.2639V26.8551C14.0598 27.2208 14.3564 27.5174 14.7221 27.5174H25.3378C25.7036 27.5174 26.0001 27.2208 26.0001 26.8551V24.2639C26.0001 23.8981 25.7036 23.6016 25.3378 23.6016ZM24.6755 26.1928H15.3845V24.9262H24.6755V26.1928Z" fill="#fff"/>
<path d="M14.7221 16.352H24.8071C25.1728 16.352 25.4694 16.0554 25.4694 15.6897C25.4694 15.3239 25.1728 15.0273 24.8071 15.0273H14.7221C14.3564 15.0273 14.0598 15.3239 14.0598 15.6897C14.0598 16.0554 14.3564 16.352 14.7221 16.352Z" fill="#fff"/>
<path d="M14.7221 19.0903H18.9911C19.3568 19.0903 19.6534 18.7937 19.6534 18.4279C19.6534 18.0622 19.3568 17.7656 18.9911 17.7656H14.7221C14.3564 17.7656 14.0598 18.0622 14.0598 18.4279C14.0598 18.7937 14.3564 19.0903 14.7221 19.0903Z" fill="#fff"/>
<path d="M14.7221 21.8285H21.7994C22.1651 21.8285 22.4617 21.532 22.4617 21.1662C22.4617 20.8005 22.1651 20.5039 21.7994 20.5039H14.7221C14.3564 20.5039 14.0598 20.8005 14.0598 21.1662C14.0598 21.532 14.3564 21.8285 14.7221 21.8285Z" fill="#fff"/>
<path d="M4.16195 16.352H7.16167C7.52741 16.352 7.82399 16.0554 7.82399 15.6897C7.82399 15.3239 7.52741 15.0273 7.16167 15.0273H4.16195C3.79622 15.0273 3.49963 15.3239 3.49963 15.6897C3.49963 16.0554 3.79615 16.352 4.16195 16.352Z" fill="#fff"/>
<path d="M22.3501 18.0615C22.1499 17.7614 21.7321 17.6788 21.4321 17.8786C21.132 18.0784 21.0481 18.4973 21.2486 18.7972C21.4493 19.0975 21.8669 19.1793 22.1672 18.9801C22.47 18.7794 22.547 18.3626 22.3501 18.0615Z" fill="#fff"/>
<path d="M27.2896 7.91412C27.4264 8.248 27.822 8.4104 28.1546 8.27244C28.4881 8.13408 28.6511 7.74106 28.5129 7.40744C28.3752 7.07496 27.98 6.91024 27.6478 7.04979C27.3157 7.18928 27.1502 7.57965 27.2896 7.91412Z" fill="#fff"/>
</svg>
