<svg width="25" height="24" viewBox="0 0 25 24" fill="none" xmlns="http://www.w3.org/2000/svg">
<path d="M22.7969 19.7812C21.6338 19.7812 20.6875 18.835 20.6875 17.6719V10.5469C20.6875 7.01311 18.3053 4.02534 15.0625 3.10491V2.10938C15.0625 0.946266 14.1162 0 12.9531 0C11.79 0 10.8438 0.946266 10.8438 2.10938V3.10491C7.60094 4.0253 5.21875 7.01311 5.21875 10.5469V17.6719C5.21875 18.835 4.27248 19.7812 3.10938 19.7812H2.40625V21.1875H10.8438V21.8906C10.8438 23.0537 11.79 24 12.9531 24C14.1162 24 15.0625 23.0537 15.0625 21.8906V21.1875H23.5V19.7812H22.7969ZM12.25 2.10938C12.25 1.72167 12.5654 1.40625 12.9531 1.40625C13.3408 1.40625 13.6562 1.72167 13.6562 2.10938V2.8448C13.4246 2.82384 13.1902 2.8125 12.9531 2.8125C12.7161 2.8125 12.4817 2.82384 12.25 2.8448V2.10938ZM12.9531 4.21875C16.4425 4.21875 19.2812 7.05755 19.2812 10.5469V16.9688H6.625V10.5469C6.625 7.05755 9.4638 4.21875 12.9531 4.21875ZM6.55427 18.375H19.352C19.4579 18.8943 19.6786 19.3723 19.9863 19.7812H5.91995C6.22769 19.3723 6.44842 18.8943 6.55427 18.375ZM13.6562 21.8906C13.6562 22.2783 13.3408 22.5938 12.9531 22.5938C12.5654 22.5938 12.25 22.2783 12.25 21.8906V21.1875H13.6562V21.8906Z" fill="#fff"/>
</svg>
